HIERARCHY
ROOT Hips
{
	OFFSET -0.001795 -0.223333 0.028219
	CHANNELS 6 Xposition Yposition Zposition Zrotation Yrotation Xrotation 
	JOINT LeftUpLeg
	{
		OFFSET 0.069520 -0.091406 -0.006815
		CHANNELS 3 Zrotation Yrotation Xrotation
		JOINT LeftLeg
		{
			OFFSET 0.034277 -0.375199 -0.004496
			CHANNELS 3 Zrotation Yrotation Xrotation
			JOINT LeftFoot
			{
				OFFSET -0.013596 -0.397961 -0.043693
				CHANNELS 3 Zrotation Yrotation Xrotation
				JOINT LeftToe
				{
					OFFSET 0.026358 -0.055791 0.119288
					CHANNELS 3 Zrotation Yrotation Xrotation
					End Site
					{
						OFFSET 0.000000 0.000000 0.000000
					}
				}
			}
		}
	}
	JOINT RightUpLeg
	{
		OFFSET -0.067670 -0.090522 -0.004320
		CHANNELS 3 Zrotation Yrotation Xrotation
		JOINT RightLeg
		{
			OFFSET -0.038290 -0.382569 -0.008850
			CHANNELS 3 Zrotation Yrotation Xrotation
			JOINT RightFoot
			{
				OFFSET 0.015774 -0.398415 -0.042312
				CHANNELS 3 Zrotation Yrotation Xrotation
				JOINT RightToe
				{
					OFFSET -0.025372 -0.048144 0.123348
					CHANNELS 3 Zrotation Yrotation Xrotation
					End Site
					{
						OFFSET 0.000000 0.000000 0.000000
					}
				}
			}
		}
	}
	JOINT Spine
	{
		OFFSET -0.002533 0.108963 -0.026696
		CHANNELS 3 Zrotation Yrotation Xrotation
		JOINT Spine1
		{
			OFFSET 0.005487 0.135180 0.001092
			CHANNELS 3 Zrotation Yrotation Xrotation
			JOINT Spine2
			{
				OFFSET 0.001457 0.052922 0.025425
				CHANNELS 3 Zrotation Yrotation Xrotation
				JOINT Neck
				{
					OFFSET -0.002778 0.213870 -0.042857
					CHANNELS 3 Zrotation Yrotation Xrotation
					JOINT Head
					{
						OFFSET 0.005152 0.064970 0.051349
						CHANNELS 3 Zrotation Yrotation Xrotation
						End Site
						{
							OFFSET 0.000000 0.000000 0.000000
						}
					}
				}
				JOINT LeftShoulder
				{
					OFFSET 0.078845 0.121749 -0.034090
					CHANNELS 3 Zrotation Yrotation Xrotation
					JOINT LeftArm
					{
						OFFSET 0.090977 0.030469 -0.008868
						CHANNELS 3 Zrotation Yrotation Xrotation
						JOINT LeftForeArm
						{
							OFFSET 0.259612 -0.012772 -0.027456
							CHANNELS 3 Zrotation Yrotation Xrotation
							JOINT LeftHand
							{
								OFFSET 0.249234 0.008986 -0.001171
								CHANNELS 3 Zrotation Yrotation Xrotation
								End Site
								{
									OFFSET 0.000000 0.000000 0.000000
								}
							}
						}
					}
				}
				JOINT RightShoulder
				{
					OFFSET -0.081759 0.118833 -0.038615
					CHANNELS 3 Zrotation Yrotation Xrotation
					JOINT RightArm
					{
						OFFSET -0.096012 0.032551 -0.009143
						CHANNELS 3 Zrotation Yrotation Xrotation
						JOINT RightForeArm
						{
							OFFSET -0.253742 -0.013329 -0.021401
							CHANNELS 3 Zrotation Yrotation Xrotation
							JOINT RightHand
							{
								OFFSET -0.255298 0.007772 -0.005559
								CHANNELS 3 Zrotation Yrotation Xrotation
								End Site
								{
									OFFSET 0.000000 0.000000 0.000000
								}
							}
						}
					}
				}
			}
		}
	}
}
MOTION
Frames: 5
Frame Time: 0.050000
0.036080 0.955120 -0.005161 1.053187 -22.746244 13.964672 4.857308 -0.351403 -10.476260 1.121130 0.045659 -4.812017 9.341083 16.618817 18.998520 0.000000 0.000000 0.000000 -1.644681 2.693599 -21.873254 -10.478458 1.097000 1.714912 11.590011 14.769918 12.962701 0.000000 0.000000 0.000000 3.233239 -0.549358 6.877203 4.758290 -1.923709 1.434895 -18.962342 -6.355169 9.713183 15.400400 -13.325600 6.513311 0.000000 0.000000 0.000000 9.503349 -42.668511 13.146642 -23.621795 -51.641954 8.260876 9.483004 -29.291866 -1.135307 0.000000 0.000000 0.000000 -12.081201 2.399693 3.142636 37.720256 -5.517872 -6.392103 120.037777 57.911152 78.888978 0.000000 0.000000 0.000000 
0.037507 0.955835 -0.007976 0.417100 -23.231372 14.037285 5.607507 -0.250068 -10.570030 0.939678 0.063243 -4.839363 9.942077 17.456663 18.908063 0.000000 0.000000 0.000000 -0.489785 2.849945 -22.033115 -10.854161 1.087156 1.361128 11.794735 13.708607 14.248350 0.000000 0.000000 0.000000 2.782000 -0.532911 7.931205 4.700809 -1.892131 1.457066 -18.875827 -6.164792 9.264626 14.729524 -12.847083 7.350694 0.000000 0.000000 0.000000 12.536295 -44.086904 12.280194 -18.155136 -52.192518 6.339925 11.090469 -24.237675 -1.356552 0.000000 0.000000 0.000000 -11.551333 5.819837 3.784174 37.151321 1.788256 -4.132412 107.417968 72.470889 83.287157 0.000000 0.000000 0.000000 
0.039466 0.956877 -0.010945 -0.094682 -24.111059 14.318219 6.235825 -0.139910 -11.284099 0.661318 0.062813 -4.279634 10.601077 18.136498 19.994254 0.000000 0.000000 0.000000 0.033510 2.973173 -22.253717 -10.370663 0.945486 0.834981 12.212185 12.768403 15.840038 0.000000 0.000000 0.000000 2.161665 -0.475828 8.882144 4.280984 -1.670964 2.177914 -18.087683 -5.149698 7.666622 15.313570 -13.213968 6.924366 0.000000 0.000000 0.000000 15.718798 -46.275259 11.600117 -12.641846 -52.832981 4.247491 11.958254 -17.692401 -1.184536 0.000000 0.000000 0.000000 -10.824510 8.851037 4.291079 35.420119 10.979784 -1.370556 30.378394 78.112942 20.899135 0.000000 0.000000 0.000000 
0.041792 0.957708 -0.013691 -0.198953 -23.660362 14.084073 6.697716 -0.089070 -11.095147 0.297026 0.142911 -5.187296 10.646799 18.179411 20.685508 0.000000 0.000000 0.000000 0.281692 2.999466 -22.301555 -10.454624 0.930754 0.623961 11.729101 11.041638 16.587688 0.000000 0.000000 0.000000 1.881832 -0.453760 9.654781 3.926356 -1.527137 2.141062 -17.613264 -4.516574 7.537539 15.135105 -13.244002 7.413435 0.000000 0.000000 0.000000 19.121280 -47.634258 10.384883 -7.903875 -53.418578 2.398796 13.308131 -11.614643 -0.942364 0.000000 0.000000 0.000000 -10.087086 12.653517 4.998101 34.711715 17.753350 0.351978 -4.885887 67.411894 -5.354025 0.000000 0.000000 0.000000 
0.044161 0.958141 -0.015964 -0.368153 -23.031171 14.063614 7.130464 -0.035645 -11.740223 0.345825 0.129186 -4.984704 10.335711 17.667123 21.786199 0.000000 0.000000 0.000000 -0.034390 2.895666 -22.009469 -9.274487 0.779510 0.417078 11.300301 9.773772 17.114023 0.000000 0.000000 0.000000 1.562123 -0.421849 10.109351 4.247196 -1.654511 3.329270 -17.147680 -3.504294 6.235956 15.517592 -13.529192 6.763301 0.000000 0.000000 0.000000 21.793147 -47.705915 9.232589 -4.115846 -55.084805 0.776299 12.719111 -6.839297 -0.526882 0.000000 0.000000 0.000000 -9.821160 14.851637 5.393889 35.105038 23.317350 1.881364 -12.021888 57.270655 -7.303428 0.000000 0.000000 0.000000 
